<svg xmlns="http://www.w3.org/2000/svg" width="375" viewBox="0 0 375 300" height="300" version="1.0"><defs><clipPath id="a"><path d="M 0 12 L 375 12 L 375 288 L 0 288 Z M 0 12"/></clipPath><clipPath id="b"><path d="M 373.640625 147.222656 C 373.980469 146.992188 374.320312 146.878906 374.546875 146.539062 C 374.773438 146.3125 375.226562 145.972656 375.226562 145.632812 C 375.226562 145.40625 374.773438 145.066406 374.546875 144.839844 L 373.523438 143.816406 C 373.753906 143.589844 374.207031 143.476562 374.207031 143.136719 C 374.433594 142.230469 374.773438 141.324219 374.773438 140.414062 C 374.773438 139.960938 373.980469 139.621094 373.523438 139.054688 C 373.980469 139.054688 374.207031 139.054688 374.546875 138.941406 L 374.546875 138.601562 L 373.523438 138.601562 C 372.84375 138.148438 372.164062 137.238281 371.9375 137.351562 C 370.691406 138.03125 370.691406 137.125 370.460938 136.445312 C 370.007812 136.558594 369.554688 136.671875 369.214844 136.558594 C 368.421875 136.445312 367.628906 136.105469 366.832031 136.105469 C 365.8125 135.992188 364.679688 135.992188 363.542969 135.878906 C 361.84375 135.652344 360.140625 135.425781 358.4375 135.199219 C 358.324219 135.199219 358.097656 135.425781 357.984375 135.425781 C 357.078125 135.3125 356.171875 135.199219 355.375 134.96875 C 355.148438 134.855469 355.035156 134.289062 355.035156 134.0625 C 356.285156 133.15625 357.53125 132.25 358.324219 131.679688 C 359.234375 131.566406 359.800781 131.453125 360.59375 131.453125 C 359.914062 130.546875 359.460938 130.09375 358.894531 129.414062 C 358.550781 129.527344 358.210938 129.640625 357.644531 129.867188 C 357.644531 129.300781 357.644531 128.730469 357.757812 128.730469 C 358.210938 128.617188 358.894531 128.503906 359.234375 128.730469 C 359.6875 129.070312 359.914062 129.640625 360.367188 130.320312 C 360.59375 130.320312 361.046875 130.433594 361.5 130.433594 C 361.386719 128.957031 361.386719 128.957031 360.140625 126.804688 C 361.730469 126.804688 362.183594 126.351562 361.84375 124.761719 C 362.863281 124.648438 363.996094 124.535156 365.019531 124.535156 C 364.90625 124.308594 364.679688 123.855469 364.5625 123.515625 C 365.019531 123.628906 365.359375 123.742188 365.585938 123.855469 C 365.699219 123.289062 365.699219 122.71875 365.8125 122.265625 C 365.925781 121.699219 366.039062 121.019531 366.152344 120.453125 C 366.152344 120.222656 366.039062 119.882812 366.152344 119.542969 C 366.492188 118.636719 366.605469 117.277344 366.265625 116.59375 C 366.492188 116.367188 366.605469 116.027344 366.605469 115.800781 C 366.605469 114.894531 366.605469 113.871094 366.492188 112.964844 C 366.378906 112.058594 366.265625 111.261719 366.152344 110.355469 C 366.039062 110.128906 366.039062 109.902344 366.152344 109.5625 C 366.492188 108.65625 366.71875 107.746094 366.039062 106.839844 C 365.8125 106.613281 365.925781 106.046875 366.039062 105.707031 C 366.378906 104.457031 365.699219 103.4375 364.449219 103.210938 L 363.996094 103.210938 C 364.109375 102.871094 364.222656 102.757812 364.335938 102.53125 C 363.996094 102.417969 363.65625 102.417969 363.429688 102.1875 C 363.203125 102.074219 363.089844 101.734375 362.863281 101.621094 C 361.957031 101.167969 360.933594 100.714844 359.914062 100.261719 C 359.574219 100.148438 359.121094 100.148438 358.78125 100.148438 C 358.550781 100.261719 358.4375 99.808594 358.210938 99.808594 C 356.625 99.46875 355.035156 99.238281 353.449219 98.785156 C 352.199219 98.332031 350.726562 99.238281 349.476562 98.332031 C 349.363281 98.21875 349.136719 98.445312 349.023438 98.445312 C 348.003906 98.21875 347.097656 98.785156 346.074219 98.445312 C 345.054688 98.105469 343.921875 97.992188 343.464844 96.972656 C 343.011719 95.949219 342.671875 94.929688 342.671875 93.910156 C 342.785156 92.660156 343.351562 91.300781 341.199219 91.527344 C 341.3125 91.300781 341.3125 91.074219 341.425781 90.960938 C 334.847656 90.277344 328.265625 89.710938 321.800781 89.03125 C 321.574219 88.238281 321.347656 87.328125 321.121094 86.082031 C 322.367188 87.441406 323.503906 88.238281 325.089844 88.125 C 325.203125 87.214844 325.089844 86.535156 324.183594 85.96875 C 324.070312 85.855469 323.957031 85.402344 324.070312 85.175781 C 324.523438 84.039062 324.976562 83.019531 325.316406 82 C 325.769531 82.339844 326.113281 82.566406 326.566406 82.792969 L 326.792969 82.566406 L 325.429688 80.523438 C 326.339844 80.75 327.132812 80.863281 328.152344 81.089844 C 327.8125 80.410156 327.472656 79.957031 327.472656 79.957031 C 328.039062 79.503906 328.605469 79.050781 329.402344 78.480469 C 329.402344 78.367188 329.515625 77.6875 329.855469 77.574219 C 330.535156 77.234375 330.761719 77.800781 330.988281 78.367188 C 331.101562 78.710938 331.78125 78.824219 332.238281 78.9375 C 332.691406 79.050781 333.257812 79.050781 333.824219 78.9375 C 334.730469 78.9375 335.640625 78.824219 336.886719 78.710938 C 335.980469 78.480469 335.300781 78.253906 334.730469 78.140625 C 334.730469 78.027344 334.730469 77.914062 334.617188 77.800781 C 335.527344 77.574219 336.433594 77.347656 337.226562 77.121094 C 338.136719 77.347656 338.929688 77.6875 339.609375 77.914062 C 339.835938 79.957031 341.199219 78.253906 341.992188 78.480469 C 341.765625 78.027344 341.425781 77.574219 341.085938 77.007812 C 342.558594 77.234375 344.035156 77.234375 345.054688 78.367188 C 345.167969 78.480469 345.621094 78.367188 345.847656 78.253906 C 346.1875 78.367188 346.757812 78.597656 346.984375 78.480469 C 347.324219 78.140625 347.324219 77.574219 347.664062 76.894531 C 348.457031 78.253906 349.25 77.460938 350.046875 76.894531 C 349.933594 77.234375 349.933594 77.460938 349.933594 77.460938 C 350.613281 77.800781 351.179688 78.027344 351.972656 78.367188 C 352.539062 78.140625 353.222656 77.347656 354.242188 78.140625 C 354.355469 78.253906 354.808594 78.027344 355.148438 78.027344 C 355.488281 77.914062 355.71875 77.914062 355.832031 77.800781 C 356.058594 77.007812 356.171875 76.328125 356.511719 75.648438 C 356.851562 74.964844 356.738281 74.285156 356.058594 74.058594 C 355.832031 73.945312 355.601562 73.945312 355.488281 73.832031 C 356.511719 72.8125 357.417969 72.128906 358.894531 72.582031 C 359.234375 72.699219 359.6875 72.242188 360.253906 71.902344 C 359.914062 71.5625 359.6875 71.449219 359.460938 71.335938 C 360.367188 69.40625 361.84375 70.65625 363.203125 70.65625 C 362.75 70.316406 362.523438 69.976562 362.296875 69.863281 C 362.976562 69.519531 363.65625 69.292969 364.222656 68.953125 C 364.335938 68.5 364.222656 68.046875 364.335938 67.820312 C 364.90625 66.914062 364.566406 66.230469 363.65625 65.777344 C 363.316406 65.550781 362.976562 65.097656 362.75 64.757812 C 363.089844 64.757812 363.542969 64.644531 363.996094 64.644531 L 363.996094 63.28125 C 364.222656 63.28125 364.449219 63.28125 364.679688 63.394531 C 364.792969 62.035156 364.90625 60.671875 365.132812 59.199219 C 363.882812 58.519531 364.566406 57.726562 365.246094 56.703125 C 365.246094 56.703125 365.019531 56.589844 364.792969 56.589844 C 364.90625 56.136719 365.132812 55.683594 365.246094 55.230469 C 365.472656 54.320312 365.132812 54.207031 364.109375 54.660156 C 363.996094 54.433594 363.882812 54.09375 363.65625 53.867188 C 363.542969 53.980469 363.542969 54.09375 363.429688 54.207031 C 362.976562 54.09375 362.636719 53.867188 362.183594 53.753906 C 359.914062 52.847656 357.53125 53.074219 355.261719 52.960938 C 354.921875 52.960938 354.46875 53.300781 354.128906 53.300781 C 352.769531 53.1875 351.519531 52.734375 350.273438 52.621094 C 348.570312 52.507812 346.871094 52.507812 345.167969 52.507812 C 343.921875 52.507812 343.695312 51.828125 343.808594 50.917969 C 344.261719 50.578125 344.714844 49.898438 344.714844 49.785156 C 343.238281 48.648438 344.601562 47.855469 344.941406 46.949219 C 344.828125 44.679688 344.714844 42.410156 344.601562 40.03125 C 344.828125 39.917969 345.28125 39.800781 345.621094 39.6875 C 345.507812 39.347656 345.28125 39.007812 345.28125 38.667969 C 345.621094 37.308594 345.734375 35.945312 344.261719 34.925781 C 344.941406 34.472656 345.507812 34.132812 346.1875 33.675781 C 346.074219 33.5625 345.960938 33.335938 345.960938 33.222656 C 345.960938 33.109375 345.847656 33.109375 345.734375 33.109375 C 344.601562 33.109375 344.148438 32.882812 344.035156 31.75 C 344.035156 31.523438 344.035156 31.183594 344.261719 30.957031 C 344.714844 30.613281 345.167969 30.273438 345.734375 30.046875 C 345.960938 29.933594 346.414062 30.046875 346.640625 30.160156 C 347.890625 30.839844 348.003906 30.839844 348.230469 29.367188 C 348.457031 29.480469 348.683594 29.59375 349.023438 29.707031 C 348.910156 29.253906 348.910156 28.914062 348.683594 28.574219 C 348.683594 28.460938 348.457031 28.347656 348.230469 28.234375 C 348.457031 28.121094 348.683594 27.890625 348.910156 28.007812 C 350.046875 28.347656 350.726562 27.550781 351.519531 27.097656 C 350.839844 26.191406 350.160156 25.398438 349.589844 24.488281 C 350.5 24.035156 351.179688 23.808594 351.859375 23.46875 C 350.386719 20.972656 350.386719 20.972656 351.40625 19.953125 C 351.40625 19.839844 351.292969 19.726562 351.292969 19.613281 C 350.953125 19.726562 350.5 19.839844 350.160156 20.066406 L 350.046875 19.953125 C 350.5 19.5 350.953125 19.160156 351.40625 18.703125 C 351.40625 18.363281 351.632812 17.570312 351.40625 17.34375 C 350.5 16.550781 351.519531 15.753906 351.292969 14.960938 C 351.179688 14.734375 351.292969 14.167969 351.179688 14.167969 C 350.5 13.828125 349.707031 13.261719 348.910156 13.261719 C 347.097656 13.148438 345.28125 13.375 343.464844 13.375 L 337.679688 13.375 C 336.320312 13.375 335.1875 13.03125 333.824219 12.691406 C 332.238281 12.238281 330.535156 12.578125 328.835938 12.691406 C 325.203125 12.804688 321.574219 12.804688 317.945312 12.917969 C 316.242188 12.917969 314.429688 13.148438 312.726562 13.261719 C 310.570312 13.375 308.417969 13.261719 306.261719 13.375 C 303.992188 13.488281 301.722656 13.714844 299.457031 13.828125 C 296.734375 13.941406 294.011719 13.941406 291.289062 14.054688 L 282.78125 14.394531 C 280.171875 14.507812 277.675781 14.507812 275.066406 14.507812 C 273.140625 14.507812 271.097656 14.621094 269.167969 14.734375 L 263.386719 15.074219 C 262.023438 15.1875 260.664062 15.1875 259.1875 15.300781 C 256.917969 15.414062 254.652344 15.414062 252.382812 15.527344 C 249.773438 15.640625 247.277344 15.867188 244.78125 15.980469 C 242.171875 16.210938 239.679688 16.4375 237.070312 16.664062 C 236.046875 16.777344 235.027344 16.777344 233.894531 16.890625 L 230.601562 16.890625 C 226.859375 17.117188 223.230469 17.457031 219.488281 17.683594 C 217.21875 17.796875 214.835938 17.910156 212.566406 18.136719 C 211.207031 18.25 209.730469 18.476562 208.371094 18.589844 L 199.183594 19.273438 C 197.253906 19.386719 195.441406 19.839844 193.625 19.953125 C 190.789062 20.179688 187.839844 20.292969 185.003906 20.519531 C 184.324219 20.519531 183.53125 20.632812 182.847656 20.632812 C 180.355469 20.859375 177.972656 21.085938 175.476562 21.3125 C 174.117188 21.425781 172.640625 21.652344 171.28125 21.765625 C 169.578125 21.878906 167.875 21.992188 166.289062 22.109375 C 163.113281 22.449219 159.824219 22.789062 156.648438 23.128906 C 156.078125 23.242188 155.625 23.582031 155.058594 23.582031 C 152.449219 23.808594 149.839844 23.808594 147.347656 24.148438 C 145.984375 24.375 144.511719 23.808594 143.261719 24.941406 C 142.808594 25.285156 141.5625 24.714844 140.765625 24.828125 C 137.589844 25.171875 134.414062 25.625 131.351562 25.964844 C 128.855469 26.304688 126.476562 26.53125 123.980469 26.871094 C 123.070312 26.984375 122.164062 27.324219 121.371094 27.4375 C 119.101562 27.664062 116.832031 27.890625 114.679688 28.121094 C 114.679688 28.574219 114.679688 28.800781 114.566406 29.027344 C 114.335938 28.800781 114.109375 28.460938 113.882812 28.007812 C 113.429688 29.253906 112.523438 28.460938 111.84375 28.574219 C 110.59375 28.800781 109.234375 29.140625 107.984375 29.253906 C 105.71875 29.59375 103.449219 29.820312 101.179688 30.046875 C 99.25 30.273438 97.324219 30.726562 95.394531 31.070312 C 92.105469 31.636719 88.703125 31.976562 85.414062 32.542969 C 83.144531 32.882812 80.875 33.449219 78.492188 33.789062 C 76.113281 34.246094 73.617188 34.585938 71.234375 35.039062 C 69.53125 35.378906 67.832031 35.832031 66.128906 36.171875 C 62.726562 36.738281 59.210938 37.308594 55.808594 37.875 C 54.558594 38.101562 53.425781 38.554688 52.179688 38.78125 C 50.023438 39.234375 47.867188 39.460938 45.710938 39.917969 C 44.125 40.257812 42.648438 40.824219 41.175781 41.050781 C 38 41.730469 34.824219 42.183594 31.648438 42.75 C 30.285156 42.980469 28.925781 43.433594 27.5625 43.773438 C 25.410156 44.339844 23.140625 44.792969 20.984375 45.359375 C 20.417969 45.472656 19.851562 45.8125 19.167969 45.929688 C 18.488281 46.042969 17.808594 46.042969 17.128906 46.15625 C 15.765625 46.496094 14.40625 46.835938 13.15625 47.175781 C 10.4375 47.855469 9.074219 48.082031 7.828125 48.761719 C 6.691406 49.332031 5.105469 49.21875 4.652344 51.03125 C 4.425781 51.597656 3.855469 51.941406 4.878906 52.167969 C 4.992188 52.167969 5.21875 52.507812 5.105469 52.621094 C 4.878906 53.300781 4.652344 53.980469 4.425781 54.890625 C 4.425781 54.890625 4.652344 55.003906 4.878906 55.230469 C 4.195312 55.910156 4.195312 58.40625 4.652344 59.199219 C 4.878906 59.652344 4.992188 60.21875 5.105469 60.789062 C 3.742188 61.128906 5.332031 61.921875 4.878906 62.375 C 5.105469 62.375 5.332031 62.375 5.671875 62.488281 C 5.445312 62.828125 5.21875 63.054688 5.105469 63.167969 C 5.332031 63.394531 5.671875 63.507812 5.898438 63.738281 C 4.652344 65.4375 4.652344 66.230469 6.125 67.707031 C 6.238281 67.820312 6.464844 68.046875 6.464844 68.160156 C 6.125 69.40625 6.238281 70.542969 7.03125 71.5625 C 7.03125 71.5625 6.917969 71.902344 6.691406 72.128906 C 7.03125 72.015625 7.257812 71.902344 7.488281 71.902344 L 7.144531 73.945312 L 8.394531 73.945312 C 8.734375 74.398438 9.074219 74.738281 9.074219 74.851562 C 9.414062 74.511719 9.640625 74.398438 9.753906 74.285156 C 10.320312 75.191406 10.777344 75.875 11.117188 76.554688 C 11.003906 77.347656 10.777344 78.027344 10.664062 78.480469 C 10.09375 78.480469 9.527344 78.367188 9.1875 78.597656 C 8.847656 78.824219 8.847656 79.390625 8.621094 79.730469 C 8.621094 79.84375 9.414062 81.316406 9.300781 81.429688 C 9.1875 82.226562 8.960938 83.019531 8.847656 83.925781 C 9.300781 84.265625 9.867188 84.722656 10.320312 85.0625 C 9.527344 85.515625 8.960938 85.96875 8.394531 86.308594 C 8.621094 86.421875 8.734375 86.535156 8.960938 86.648438 C 9.074219 87.101562 9.300781 87.558594 9.300781 88.011719 C 9.300781 88.464844 8.960938 89.257812 9.1875 89.371094 C 10.207031 89.9375 9.640625 91.640625 11.003906 91.867188 C 11.117188 91.867188 11.117188 92.09375 11.34375 92.320312 C 11.003906 92.320312 10.777344 92.320312 10.320312 92.433594 C 11.570312 93.339844 11.230469 94.136719 10.777344 94.816406 C 10.320312 94.929688 9.980469 95.042969 9.640625 95.15625 C 9.753906 95.382812 9.753906 95.496094 9.867188 95.722656 C 9.980469 95.835938 10.550781 97.3125 10.550781 97.539062 C 10.320312 98.105469 10.207031 98.671875 10.09375 99.238281 C 10.777344 99.238281 11.34375 99.351562 11.570312 99.351562 C 11.34375 99.46875 11.003906 99.695312 10.777344 99.808594 C 10.890625 100.035156 11.003906 100.261719 11.230469 100.375 C 12.136719 100.261719 13.042969 100.148438 14.066406 100.035156 C 13.953125 100.601562 13.839844 101.054688 13.613281 101.507812 C 14.179688 101.507812 14.859375 101.621094 15.425781 101.621094 L 15.425781 102.1875 C 14.632812 102.300781 13.839844 102.53125 13.15625 102.644531 C 15.992188 104.003906 18.601562 102.757812 21.664062 102.300781 C 22.230469 102.871094 22.800781 102.417969 23.253906 101.507812 C 23.820312 102.300781 24.273438 102.074219 25.410156 100.488281 C 25.523438 100.488281 25.636719 100.601562 25.75 100.601562 C 25.636719 101.054688 25.410156 101.394531 25.296875 101.847656 C 25.976562 101.621094 26.542969 101.507812 27.222656 101.28125 L 29.605469 100.941406 C 30.851562 100.714844 32.101562 100.601562 33.234375 100.375 C 33.6875 100.261719 34.140625 99.921875 34.597656 99.808594 C 35.050781 99.695312 35.730469 99.351562 35.957031 99.582031 C 36.863281 100.375 37.660156 101.28125 38.566406 102.074219 C 38.679688 101.847656 38.792969 101.507812 38.792969 101.507812 C 39.585938 101.734375 40.15625 101.847656 40.949219 102.074219 C 41.0625 102.417969 41.289062 102.871094 41.289062 103.097656 C 42.535156 103.210938 43.558594 103.324219 44.464844 103.4375 C 44.464844 103.550781 44.578125 103.664062 44.578125 103.777344 L 42.535156 104.457031 C 42.421875 104.117188 42.308594 104.003906 42.082031 103.4375 C 42.195312 104.683594 42.308594 105.480469 42.308594 106.5 C 43.332031 105.707031 44.691406 106.613281 45.371094 105.25 C 45.371094 105.136719 45.824219 105.136719 45.9375 105.25 C 46.847656 105.367188 47.753906 105.480469 48.660156 105.707031 C 48.546875 105.480469 48.546875 105.25 48.433594 105.023438 C 49 105.136719 49.457031 105.25 49.796875 105.367188 C 49.796875 105.480469 49.910156 105.59375 49.910156 105.707031 C 49.117188 106.160156 48.320312 106.726562 47.527344 107.179688 C 46.28125 107.972656 45.144531 108.996094 43.898438 109.335938 C 41.742188 109.789062 39.585938 110.582031 37.320312 110.695312 L 36.75 110.695312 C 34.371094 111.148438 32.101562 111.605469 29.71875 112.058594 C 29.378906 112.171875 29.152344 112.285156 28.8125 112.285156 C 27.335938 112.511719 25.863281 112.625 24.5 112.851562 C 23.027344 113.191406 21.4375 113.417969 19.964844 113.984375 C 18.828125 114.328125 17.355469 114.210938 16.902344 115.347656 C 16.449219 115.347656 15.992188 115.234375 15.765625 115.347656 C 14.066406 116.027344 12.363281 116.707031 10.777344 117.503906 C 10.207031 117.957031 9.753906 118.183594 9.527344 118.636719 C 9.414062 118.976562 9.753906 119.542969 9.867188 119.769531 C 9.640625 119.882812 9.1875 119.996094 9.1875 120.109375 C 9.1875 120.792969 9.1875 121.472656 9.414062 122.039062 C 9.753906 122.832031 10.777344 123.515625 9.640625 124.535156 C 9.414062 124.648438 9.640625 125.214844 9.640625 125.667969 C 9.980469 125.554688 10.207031 125.554688 10.550781 125.554688 C 9.414062 127.484375 9.414062 128.164062 10.550781 128.503906 C 10.550781 129.1875 10.320312 129.867188 10.550781 130.320312 C 11.230469 131.453125 12.136719 132.589844 12.929688 133.609375 C 12.816406 133.722656 12.589844 133.835938 12.476562 133.835938 C 12.929688 134.402344 13.386719 134.96875 13.726562 135.3125 C 13.269531 135.992188 12.929688 136.558594 12.476562 137.125 C 13.042969 137.351562 13.386719 137.464844 13.839844 137.578125 C 13.042969 137.804688 12.363281 138.03125 11.34375 138.488281 C 13.269531 138.941406 13.386719 140.300781 13.613281 141.664062 C 13.613281 141.777344 14.179688 141.890625 14.519531 142.003906 C 14.519531 142.230469 14.292969 142.570312 14.40625 142.796875 C 14.859375 143.363281 15.652344 143.703125 15.765625 144.386719 C 16.449219 146.3125 17.695312 145.972656 19.054688 145.519531 L 19.738281 146.539062 C 19.964844 146.425781 20.191406 146.199219 20.304688 146.085938 C 20.417969 146.765625 21.550781 147.5625 21.890625 147.109375 C 22.6875 145.972656 23.59375 146.652344 24.5 146.765625 C 24.953125 146.878906 25.636719 146.992188 25.863281 146.765625 C 26.429688 146.199219 28.128906 146.765625 27.675781 145.179688 C 27.5625 144.839844 27.109375 144.5 26.65625 144.160156 L 29.945312 144.160156 C 30.058594 144.5 30.058594 144.953125 30.171875 145.292969 C 29.605469 145.40625 29.039062 145.519531 28.472656 145.746094 C 28.472656 145.859375 28.585938 145.972656 28.585938 146.199219 C 28.8125 146.199219 29.152344 146.085938 29.378906 146.085938 C 30.285156 146.425781 31.535156 145.519531 32.328125 146.652344 C 33.800781 148.695312 36.410156 149.261719 38.792969 148.128906 C 39.019531 148.015625 39.472656 148.355469 39.8125 148.46875 C 39.925781 148.46875 39.925781 148.46875 40.039062 148.582031 C 40.15625 148.355469 40.15625 148.128906 40.15625 148.242188 C 40.949219 148.242188 41.742188 148.46875 42.535156 148.355469 C 43.785156 148.242188 45.03125 147.789062 46.28125 147.675781 C 48.207031 147.449219 50.136719 147.449219 52.066406 146.992188 C 52.859375 146.765625 53.425781 146.878906 53.992188 147.109375 C 50.476562 148.582031 46.960938 150.058594 43.445312 151.417969 C 43.445312 151.53125 43.558594 151.644531 43.558594 151.757812 C 43.785156 151.757812 44.011719 151.871094 44.464844 151.984375 C 43.671875 152.324219 43.332031 152.4375 42.761719 152.664062 C 43.785156 153.347656 42.421875 154.140625 42.988281 155.046875 C 43.445312 155.957031 43.101562 157.316406 45.144531 156.976562 C 43.105469 157.996094 42.988281 159.472656 44.351562 161.058594 C 44.578125 161.285156 44.691406 161.738281 44.578125 161.96875 C 44.351562 162.761719 44.011719 163.441406 43.785156 164.007812 C 42.988281 164.007812 42.535156 163.894531 42.082031 163.894531 C 40.949219 164.007812 39.8125 164.234375 38.679688 164.460938 C 35.050781 165.144531 31.308594 165.824219 27.675781 166.503906 C 24.613281 167.070312 21.664062 168.207031 18.601562 168.433594 C 16.449219 168.546875 14.519531 169.679688 12.476562 169.792969 C 11.117188 169.90625 9.753906 170.472656 8.507812 171.042969 C 7.828125 171.269531 7.257812 171.835938 6.691406 172.175781 C 6.578125 172.175781 6.238281 172.0625 6.125 172.175781 C 5.21875 172.628906 4.425781 173.082031 3.515625 173.421875 C 2.835938 173.761719 2.269531 174.105469 1.589844 174.445312 C 1.589844 174.558594 1.703125 174.671875 1.703125 174.785156 C 1.476562 174.785156 1.132812 174.671875 0.792969 174.558594 C 0.90625 175.238281 1.019531 175.691406 1.132812 176.257812 C 1.019531 176.257812 1.019531 176.257812 0.90625 176.371094 C 0.792969 176.144531 0.679688 175.917969 0.566406 175.804688 C -0.453125 176.941406 -1.132812 177.960938 0.453125 178.640625 C 0.339844 179.207031 0.339844 179.660156 0.339844 180.003906 L 0.679688 182.382812 C 0.792969 183.40625 0.566406 184.425781 1.816406 184.765625 C 1.476562 185.332031 1.476562 187.941406 1.929688 188.054688 C 2.722656 188.394531 2.949219 189.417969 3.628906 189.871094 C 3.742188 189.984375 3.855469 190.210938 3.855469 190.210938 C 2.949219 191.230469 4.308594 190.777344 4.539062 191.230469 C 4.308594 191.800781 3.855469 192.367188 3.742188 193.046875 C 3.628906 193.726562 3.742188 194.292969 4.765625 193.953125 C 4.652344 194.976562 4.539062 195.882812 4.425781 196.902344 C 4.539062 196.902344 4.652344 196.789062 4.652344 196.789062 C 4.992188 197.582031 5.21875 198.265625 5.558594 198.945312 C 6.125 198.945312 6.691406 199.058594 7.371094 199.171875 L 7.371094 199.511719 C 7.03125 199.625 6.691406 199.738281 6.351562 199.851562 C 6.464844 199.964844 6.691406 199.964844 6.691406 199.964844 C 6.804688 201.667969 8.28125 201.441406 9.300781 201.894531 C 9.753906 202.121094 10.320312 202.234375 10.664062 202.121094 C 11.34375 201.78125 11.796875 201.894531 11.796875 202.574219 C 11.796875 202.914062 11.570312 203.367188 11.457031 203.597656 C 12.25 203.597656 13.5 203.9375 14.179688 203.480469 C 15.765625 202.460938 17.242188 203.367188 18.714844 203.027344 C 19.511719 202.800781 20.191406 202.800781 21.324219 202.574219 C 21.890625 203.027344 22.460938 202.914062 22.574219 202.347656 C 23.480469 202.347656 24.273438 202.347656 25.066406 202.234375 C 26.316406 202.007812 27.449219 201.667969 28.699219 201.554688 C 29.492188 201.441406 30.398438 201.667969 31.308594 201.554688 C 31.761719 201.441406 32.101562 200.761719 32.554688 200.417969 C 33.007812 201.554688 33.914062 201.667969 35.390625 200.875 C 34.824219 200.417969 34.140625 200.078125 33.574219 199.738281 C 34.140625 199.511719 34.597656 199.171875 35.050781 199.058594 C 35.503906 199.058594 35.84375 199.171875 36.183594 199.171875 C 36.523438 199.171875 36.863281 199.171875 37.207031 199.058594 C 37.546875 198.945312 37.773438 198.832031 38 198.605469 C 38 198.945312 38.113281 199.398438 38.113281 199.738281 C 38.113281 200.078125 37.886719 200.417969 37.773438 200.761719 C 38.113281 200.761719 38.453125 200.761719 38.90625 200.648438 C 39.359375 201.328125 38.113281 202.800781 39.8125 202.914062 C 39.699219 203.367188 39.585938 203.710938 39.472656 204.164062 C 40.15625 204.164062 40.835938 204.277344 41.855469 204.390625 C 41.402344 204.957031 41.0625 205.410156 40.609375 205.863281 C 40.949219 205.75 41.289062 205.75 41.96875 205.636719 C 40.496094 207 42.082031 207.113281 42.648438 207.90625 C 42.988281 207 43.21875 206.429688 43.332031 205.976562 C 43.898438 206.546875 44.578125 207.226562 45.257812 208.019531 C 45.371094 208.019531 45.597656 207.792969 45.710938 207.90625 C 46.960938 208.472656 47.527344 207.90625 47.980469 206.773438 C 48.09375 206.546875 48.660156 206.429688 48.773438 206.316406 C 48.546875 207 48.207031 207.679688 47.867188 208.472656 C 46.507812 208.699219 44.917969 209.039062 43.332031 209.378906 C 41.855469 209.722656 40.382812 210.289062 38.792969 210.515625 C 36.636719 210.855469 34.484375 211.082031 32.214844 211.421875 C 29.605469 211.875 26.996094 212.328125 24.386719 212.898438 C 22.230469 213.351562 20.191406 214.03125 18.035156 214.484375 C 16.5625 214.824219 15.085938 214.9375 13.726562 215.507812 C 12.363281 216.074219 10.4375 215.960938 9.980469 217.886719 C 9.1875 217.433594 8.621094 217.660156 8.507812 218.457031 C 8.507812 218.683594 8.394531 218.910156 8.167969 218.910156 C 6.917969 219.25 7.257812 219.929688 7.828125 220.609375 C 8.507812 221.402344 8.507812 222.199219 8.394531 223.105469 C 8.167969 224.351562 7.941406 225.714844 7.714844 226.960938 C 7.714844 227.300781 8.054688 227.644531 8.28125 227.984375 L 8.621094 228.664062 L 8.621094 230.59375 C 9.074219 230.59375 9.640625 230.480469 10.207031 230.480469 C 10.207031 230.480469 10.207031 230.59375 10.320312 230.59375 C 9.980469 230.707031 9.753906 230.820312 9.414062 231.046875 C 10.09375 231.839844 8.847656 233.882812 11.570312 233.429688 C 10.777344 234.109375 10.320312 234.5625 9.980469 234.789062 C 10.207031 235.355469 10.4375 235.695312 10.550781 236.035156 C 10.09375 236.378906 9.753906 236.71875 9.414062 236.945312 C 9.867188 237.398438 10.320312 237.738281 10.550781 238.078125 C 11.003906 237.625 11.457031 237.171875 11.910156 237.171875 C 12.363281 237.171875 12.929688 237.964844 13.5 238.417969 C 13.5 238.53125 13.15625 238.644531 13.042969 238.644531 C 12.25 237.738281 11.457031 237.625 10.664062 238.644531 C 10.664062 238.644531 10.550781 238.644531 10.550781 238.53125 C 10.550781 238.417969 10.550781 238.417969 10.4375 238.304688 C 9.980469 238.757812 10.09375 239.097656 10.664062 239.441406 C 11.457031 239.894531 11.34375 240.234375 10.890625 240.800781 C 11.117188 240.914062 11.457031 241.140625 11.457031 241.253906 C 11.457031 241.820312 12.589844 242.160156 11.683594 242.84375 C 12.136719 243.410156 12.363281 243.976562 13.386719 244.203125 C 14.292969 244.429688 14.519531 243.976562 15.085938 243.863281 C 15.652344 243.75 16.335938 244.089844 16.902344 244.203125 C 17.128906 244.203125 17.355469 243.863281 17.355469 243.75 C 18.148438 243.863281 18.941406 244.089844 19.625 243.976562 C 20.644531 243.863281 21.210938 244.203125 21.324219 245.109375 C 21.4375 246.132812 22.003906 246.246094 22.800781 246.132812 C 23.480469 246.019531 24.046875 245.792969 24.726562 245.679688 C 24.386719 245.339844 23.933594 244.996094 23.367188 244.542969 C 23.933594 244.429688 24.5 244.203125 24.953125 244.203125 C 25.863281 244.089844 26.65625 243.976562 27.5625 243.976562 C 27.902344 243.976562 28.246094 244.203125 28.585938 244.542969 C 27.109375 244.542969 25.75 244.542969 24.726562 245.679688 C 25.066406 245.792969 25.523438 245.90625 25.863281 245.90625 C 27.789062 245.792969 29.832031 245.679688 31.761719 245.566406 C 33.6875 245.453125 35.503906 245.222656 37.546875 245.109375 C 38.113281 247.492188 38.679688 249.761719 39.132812 252.03125 C 38.90625 252.144531 38.679688 252.257812 38.453125 252.257812 C 38.792969 252.710938 39.246094 253.164062 39.359375 253.617188 C 39.472656 254.300781 39.359375 254.980469 39.359375 255.433594 C 40.15625 255.660156 40.609375 255.773438 41.175781 255.886719 C 41.0625 255.886719 40.949219 256 40.722656 256 C 40.835938 256.792969 41.0625 257.703125 41.175781 258.835938 L 42.988281 258.835938 C 43.332031 258.835938 43.671875 259.0625 43.785156 259.175781 C 44.238281 260.539062 45.257812 260.992188 46.621094 260.652344 C 47.1875 260.539062 47.867188 260.539062 48.433594 260.539062 L 49.796875 260.539062 C 50.25 260.539062 50.703125 260.425781 51.15625 260.3125 C 51.269531 259.96875 51.269531 259.628906 51.382812 259.175781 C 51.722656 259.175781 51.949219 259.0625 52.292969 259.0625 C 54.445312 258.835938 56.714844 258.496094 58.984375 258.269531 C 58.984375 258.269531 59.097656 258.496094 59.210938 258.835938 C 58.871094 258.949219 58.644531 259.0625 58.417969 259.175781 C 59.324219 260.082031 60.570312 260.199219 61.367188 259.515625 C 60.910156 259.175781 60.570312 258.949219 60.003906 258.609375 L 60.34375 258.269531 L 61.253906 258.269531 L 61.253906 258.15625 C 61.707031 258.269531 62.046875 258.496094 62.5 258.15625 L 62.953125 258.15625 L 66.925781 258.382812 C 67.378906 258.382812 67.605469 258.269531 67.832031 258.042969 C 68.398438 258.949219 68.851562 259.742188 69.417969 260.765625 C 69.304688 260.765625 69.078125 260.878906 68.851562 260.878906 C 70.328125 263.261719 71.234375 265.753906 69.871094 268.476562 C 69.988281 269.386719 70.214844 270.292969 70.328125 271.425781 L 71.460938 271.425781 C 71.234375 271.992188 71.007812 272.335938 70.894531 272.675781 C 70.894531 273.242188 72.140625 273.46875 71.234375 274.261719 L 71.460938 274.714844 C 72.59375 276.191406 73.84375 277.550781 75.089844 279.253906 C 74.183594 279.707031 73.390625 280.160156 72.367188 280.613281 C 73.390625 280.726562 73.503906 281.296875 73.164062 282.089844 C 73.050781 282.316406 73.277344 282.882812 73.390625 282.996094 C 74.636719 283.335938 75.769531 284.585938 77.246094 284.132812 C 77.246094 284.359375 77.132812 284.699219 77.019531 284.8125 C 76.113281 285.265625 75.203125 285.605469 74.296875 286.058594 L 75.65625 286.738281 C 75.886719 286.398438 76 286.058594 76.226562 285.71875 C 76.90625 286.058594 77.472656 286.285156 78.152344 286.625 C 77.8125 286.851562 77.585938 286.96875 77.359375 287.082031 C 77.585938 287.195312 77.8125 287.421875 78.152344 287.535156 C 78.492188 287.648438 78.835938 287.535156 79.0625 287.648438 C 79.628906 287.082031 80.082031 286.398438 80.648438 286.058594 C 81.328125 285.71875 99.820312 283.789062 100.5 283.675781 C 101.40625 283.5625 102.425781 283.675781 103.335938 283.789062 L 100.953125 284.8125 L 101.292969 285.492188 C 102.425781 285.378906 103.335938 285.378906 104.242188 285.152344 C 104.808594 285.039062 105.71875 285.152344 105.832031 284.246094 C 106.625 284.8125 107.417969 284.925781 108.4375 284.472656 C 109.007812 284.246094 109.6875 284.246094 110.253906 284.132812 C 111.617188 284.019531 112.976562 283.902344 114.335938 283.675781 L 115.699219 283.675781 C 115.8125 283.449219 115.8125 283.109375 115.8125 283.109375 C 117.058594 283.109375 118.082031 283.222656 119.214844 283.222656 C 120.460938 283.222656 121.03125 282.429688 120.578125 281.183594 C 120.917969 281.183594 121.371094 281.296875 121.597656 281.296875 C 121.710938 281.75 121.597656 282.316406 121.824219 282.429688 C 122.164062 282.65625 122.730469 282.65625 123.183594 282.542969 C 123.753906 282.429688 124.433594 281.863281 124.660156 282.089844 C 125.792969 282.996094 126.589844 282.203125 127.15625 281.75 C 127.609375 281.863281 127.835938 282.203125 128.0625 282.089844 C 128.628906 281.976562 129.308594 281.863281 129.878906 281.75 C 131.125 281.410156 132.488281 281.183594 133.734375 281.183594 C 135.4375 281.070312 137.023438 280.613281 138.726562 280.5 C 139.519531 280.386719 140.3125 280.613281 141.105469 280.726562 C 141.332031 280.726562 141.675781 280.726562 141.675781 280.613281 C 141.675781 279.480469 143.488281 280.046875 143.261719 278.800781 C 143.488281 278.914062 143.714844 278.914062 143.828125 279.140625 C 144.167969 279.480469 144.398438 279.820312 144.738281 280.160156 C 144.738281 279.707031 144.738281 279.367188 144.625 278.914062 C 145.757812 279.480469 146.890625 280.046875 147.6875 280.5 C 148.480469 279.933594 149.160156 279.707031 149.613281 279.140625 C 150.066406 278.460938 149.953125 278.347656 150.75 278.914062 C 150.636719 279.027344 150.410156 279.140625 150.179688 279.367188 C 151.542969 279.027344 152.789062 278.347656 154.152344 278.460938 C 155.511719 278.460938 156.875 278.6875 158.121094 277.890625 C 158.234375 278.234375 158.234375 278.574219 158.460938 278.6875 C 158.800781 278.914062 159.371094 279.027344 159.484375 278.914062 C 160.164062 277.890625 161.296875 278.003906 161.976562 278.574219 C 162.886719 279.253906 163.453125 278.6875 164.246094 278.574219 C 163.566406 278.234375 163 277.890625 162.433594 277.664062 C 162.546875 277.550781 162.546875 277.4375 162.660156 277.324219 C 163 277.4375 163.453125 277.550781 163.792969 277.777344 C 163.90625 277.324219 164.132812 276.984375 164.246094 276.644531 C 165.382812 277.210938 166.402344 277.664062 167.648438 276.871094 C 167.875 276.757812 168.785156 276.078125 168.558594 277.210938 C 167.988281 277.550781 167.421875 277.890625 166.855469 278.121094 C 166.855469 278.234375 166.96875 278.234375 166.96875 278.347656 C 167.648438 278.234375 168.445312 278.121094 169.238281 278.003906 C 169.011719 277.664062 168.898438 277.4375 168.785156 277.210938 C 169.578125 277.324219 170.484375 277.4375 171.28125 277.324219 C 172.980469 277.210938 174.230469 275.511719 176.269531 276.191406 C 176.949219 276.417969 178.539062 276.191406 178.652344 274.714844 C 178.652344 275.058594 178.652344 275.511719 178.765625 275.738281 C 179.898438 275.398438 180.921875 275.058594 182.054688 274.714844 C 182.054688 274.828125 181.828125 275.171875 181.941406 275.398438 C 181.941406 275.738281 182.167969 276.078125 182.394531 276.304688 C 182.507812 276.417969 183.078125 276.304688 183.078125 276.191406 C 183.304688 275.171875 184.097656 275.285156 184.890625 275.285156 C 185.570312 275.285156 186.367188 275.171875 187.160156 275.058594 C 187.5 274.488281 187.726562 273.582031 188.859375 274.714844 C 189.316406 275.171875 190.449219 275.058594 190.5625 274.148438 L 195.328125 274.148438 L 195.328125 274.375 C 195.894531 274.261719 196.460938 274.035156 196.914062 273.921875 C 197.253906 274.488281 197.59375 275.058594 198.050781 275.738281 C 198.84375 273.582031 199.75 273.128906 201.339844 273.921875 C 201.566406 274.035156 201.566406 274.601562 201.679688 275.058594 C 201.792969 274.941406 202.472656 274.714844 202.472656 274.601562 C 202.359375 273.695312 203.605469 274.375 203.492188 273.695312 C 204.515625 274.148438 204.742188 273.46875 204.96875 273.015625 C 204.515625 272.675781 204.289062 272.449219 203.949219 272.109375 C 204.0625 271.992188 204.0625 271.878906 204.175781 271.765625 C 205.082031 272.335938 205.988281 272.902344 206.554688 273.242188 C 207.464844 273.128906 208.257812 273.128906 209.050781 273.015625 C 209.847656 272.902344 210.640625 272.5625 211.546875 272.335938 C 211.660156 272.5625 211.773438 272.675781 211.886719 272.902344 C 212.226562 272.449219 212.453125 271.992188 212.910156 271.199219 L 212.910156 273.015625 C 213.929688 272.335938 214.722656 271.765625 215.402344 271.199219 C 215.859375 271.992188 216.199219 272.789062 216.539062 273.46875 C 216.652344 273.46875 216.652344 273.355469 216.765625 273.355469 C 216.652344 272.902344 216.539062 272.449219 216.3125 271.878906 L 222.097656 271.878906 C 222.664062 270.859375 223.910156 270.746094 224.933594 271.765625 C 226.40625 273.242188 226.632812 273.242188 227.539062 271.085938 C 227.996094 271.3125 228.449219 271.539062 229.015625 271.878906 C 229.695312 270.40625 230.832031 270.40625 232.191406 270.859375 C 232.871094 271.085938 233.667969 270.632812 234.460938 270.40625 L 235.027344 270.972656 C 235.707031 270.746094 236.273438 270.632812 236.84375 270.40625 C 236.957031 270.746094 236.957031 270.972656 237.070312 271.539062 C 237.523438 271.085938 237.863281 270.632812 238.429688 270.066406 C 238.882812 270.632812 239.222656 271.199219 239.679688 271.765625 C 240.472656 271.765625 241.71875 272.449219 241.945312 270.632812 C 241.945312 270.40625 242.628906 270.066406 242.96875 269.953125 C 243.648438 269.839844 244.328125 269.726562 245.007812 269.726562 C 244.78125 269.273438 244.554688 268.929688 244.214844 268.363281 C 245.121094 268.589844 245.804688 268.589844 246.371094 268.816406 C 247.617188 269.386719 248.640625 269.386719 249.886719 268.476562 C 249.660156 268.363281 249.433594 268.136719 249.207031 268.023438 C 249.320312 267.683594 249.546875 267.34375 249.660156 267.003906 C 250.113281 265.640625 251.246094 266.550781 252.042969 266.210938 C 252.042969 266.210938 252.496094 266.664062 252.609375 267.003906 C 252.949219 267.683594 253.175781 268.476562 253.515625 269.273438 C 255.558594 268.023438 257.371094 268.476562 259.1875 268.703125 C 258.734375 268.476562 258.394531 268.25 258.054688 268.023438 C 258.054688 267.910156 258.167969 267.796875 258.167969 267.683594 C 258.621094 267.796875 259.1875 268.023438 259.640625 268.136719 C 259.640625 268.023438 259.640625 267.910156 259.527344 267.796875 C 259.867188 267.683594 260.4375 267.457031 260.550781 267.570312 C 261.230469 268.929688 262.363281 267.910156 263.386719 268.25 C 263.15625 267.34375 263.042969 266.664062 262.929688 266.210938 C 263.386719 265.753906 263.839844 265.414062 264.519531 264.960938 C 264.519531 265.527344 264.40625 266.09375 264.40625 266.664062 C 264.40625 267.230469 264.519531 267.796875 264.746094 268.136719 C 264.859375 268.363281 265.539062 268.136719 265.992188 268.023438 C 266.789062 267.683594 267.582031 267.230469 268.375 268.136719 C 268.488281 268.25 268.941406 268.136719 269.167969 267.910156 C 269.738281 267.34375 270.191406 266.550781 270.871094 267.796875 C 270.984375 267.910156 271.664062 267.910156 272.003906 267.796875 C 272.800781 267.457031 273.480469 267.117188 274.273438 266.664062 C 274.160156 267.003906 274.046875 267.230469 274.046875 267.457031 C 274.953125 267.910156 275.75 268.136719 276.429688 267.117188 C 276.65625 266.777344 277.449219 266.777344 278.015625 266.664062 C 277.675781 266.324219 277.222656 266.09375 276.769531 265.753906 C 278.699219 264.621094 278.925781 264.734375 278.925781 266.324219 C 279.152344 265.867188 279.265625 265.527344 279.605469 264.847656 C 281.308594 264.960938 283.007812 265.1875 284.824219 265.300781 L 284.824219 265.867188 L 284.140625 265.867188 C 282.78125 265.980469 281.421875 265.980469 280.058594 266.09375 C 280.511719 266.324219 281.078125 266.664062 281.535156 266.890625 C 281.761719 266.324219 281.875 266.4375 282.441406 266.664062 C 283.234375 266.890625 284.140625 266.890625 285.050781 267.003906 C 285.503906 267.003906 285.957031 267.117188 286.523438 267.230469 C 286.636719 266.890625 286.863281 266.4375 287.089844 265.867188 C 288.339844 267.910156 289.246094 267.796875 290.722656 265.753906 C 290.722656 266.09375 290.835938 266.324219 290.835938 266.550781 C 291.289062 266.550781 291.628906 266.550781 292.082031 266.4375 C 291.96875 266.664062 291.855469 266.890625 291.742188 267.003906 L 291.96875 267.230469 C 292.308594 266.890625 292.648438 266.550781 293.21875 266.09375 C 293.671875 266.324219 294.238281 266.550781 294.691406 266.777344 C 295.144531 266.4375 295.710938 266.09375 296.28125 265.753906 C 297.074219 267.34375 298.09375 267.570312 299 266.4375 C 300.363281 266.550781 301.496094 266.664062 302.292969 266.664062 C 302.40625 265.867188 302.519531 265.300781 302.632812 264.734375 C 303.085938 264.847656 303.425781 264.960938 303.878906 265.074219 C 304.105469 265.1875 304.332031 265.414062 304.558594 265.527344 C 304.21875 265.640625 303.878906 265.640625 303.539062 265.753906 C 304.558594 266.664062 305.355469 266.4375 306.148438 265.753906 C 305.808594 266.664062 306.828125 266.550781 306.941406 266.550781 C 308.417969 265.980469 309.777344 265.640625 311.367188 266.550781 C 311.59375 265.414062 311.820312 264.507812 311.933594 263.601562 C 312.5 263.714844 312.953125 263.714844 313.519531 263.828125 C 313.976562 263.828125 314.429688 263.941406 314.882812 263.941406 L 314.882812 264.28125 C 314.429688 264.394531 314.089844 264.507812 313.632812 264.621094 L 313.632812 264.960938 C 315.222656 265.300781 316.695312 265.640625 318.285156 265.867188 C 318.625 265.980469 319.078125 265.640625 319.644531 265.300781 C 319.875 265.414062 320.441406 265.640625 321.121094 265.753906 C 322.820312 265.980469 324.636719 266.210938 326 264.734375 C 326.113281 265.980469 327.246094 265.1875 327.8125 265.640625 C 327.8125 265.640625 328.378906 265.1875 328.605469 264.960938 C 328.605469 264.960938 328.492188 264.847656 328.492188 264.734375 C 328.71875 264.847656 328.835938 265.1875 329.0625 265.074219 C 330.082031 265.074219 330.988281 264.960938 331.667969 264.960938 C 332.238281 265.300781 332.578125 265.640625 332.804688 265.527344 C 334.164062 265.414062 335.414062 265.074219 336.660156 265.074219 C 337.910156 265.753906 337.679688 264.507812 337.453125 263.828125 C 337.910156 263.375 338.363281 263.03125 338.476562 262.917969 C 339.15625 262.917969 339.609375 263.03125 339.949219 262.917969 C 340.402344 262.578125 340.742188 262.011719 341.3125 261.332031 C 341.992188 261.21875 343.125 260.992188 344.375 260.765625 C 344.375 260.765625 344.375 260.539062 344.488281 260.3125 C 344.941406 259.628906 346.074219 259.402344 345.394531 258.15625 C 345.28125 257.929688 345.28125 257.25 345.507812 257.019531 C 346.300781 256 346.300781 255.886719 344.941406 255.433594 C 345.054688 254.640625 344.261719 253.617188 345.394531 253.503906 C 345.734375 252.824219 345.847656 252.484375 346.074219 252.144531 C 346.1875 251.917969 346.527344 251.691406 346.527344 251.464844 C 346.527344 251.007812 346.300781 250.441406 346.414062 250.101562 C 346.757812 248.855469 346.871094 247.71875 344.828125 247.265625 C 345.621094 246.925781 345.960938 246.699219 346.527344 246.472656 C 345.621094 246.019531 344.828125 245.679688 343.808594 245.222656 L 344.828125 245.222656 L 344.828125 244.882812 C 344.261719 244.882812 343.808594 244.769531 343.238281 244.769531 C 343.238281 244.882812 343.238281 244.996094 343.125 245.109375 C 343.011719 244.882812 342.898438 244.65625 342.785156 244.316406 C 345.734375 243.636719 365.472656 241.480469 363.65625 241.140625 C 364.566406 240.347656 364.222656 238.984375 365.8125 238.871094 C 366.265625 238.871094 367.058594 238.078125 367.171875 237.511719 C 367.398438 236.71875 367.171875 235.695312 367.398438 234.902344 C 367.628906 233.769531 368.082031 232.632812 368.421875 231.726562 C 368.082031 231.160156 367.742188 230.59375 367.515625 230.25 C 367.96875 229.910156 368.195312 229.683594 368.535156 229.570312 C 368.421875 229.457031 368.421875 229.34375 368.308594 229.230469 C 367.96875 229.34375 367.628906 229.457031 367.285156 229.570312 C 369.214844 227.984375 369.667969 225.035156 368.082031 223.671875 C 367.96875 223.898438 367.742188 224.125 367.628906 224.351562 C 367.171875 223.558594 365.925781 223.332031 366.492188 222.085938 C 366.492188 222.085938 366.378906 221.859375 366.265625 221.859375 C 365.699219 221.632812 365.8125 221.289062 365.585938 220.835938 C 365.246094 219.816406 365.359375 218.796875 365.359375 217.886719 L 365.359375 213.804688 C 365.359375 212.898438 365.8125 212.441406 366.71875 212.671875 C 366.71875 212.671875 366.832031 212.554688 366.945312 212.554688 C 366.605469 212.328125 366.378906 212.214844 366.152344 211.988281 C 366.152344 211.875 366.265625 211.761719 366.265625 211.648438 C 367.058594 211.875 367.855469 212.214844 368.421875 212.441406 C 369.101562 211.535156 369.667969 210.855469 370.121094 210.402344 L 370.121094 208.359375 C 369.894531 208.359375 369.554688 208.472656 369.214844 208.472656 C 368.988281 207.90625 368.875 207.339844 368.648438 206.542969 C 369.214844 206.886719 369.441406 207.113281 369.667969 207.226562 C 369.894531 207.113281 370.234375 207 370.578125 206.773438 C 370.460938 206.660156 370.347656 206.542969 370.347656 206.429688 C 370.007812 206.429688 369.667969 206.316406 369.554688 206.316406 C 369.78125 205.636719 370.234375 204.957031 370.007812 204.617188 C 369.441406 203.140625 370.007812 202.007812 370.578125 200.761719 C 370.691406 200.417969 370.578125 200.078125 370.578125 199.738281 C 370.691406 198.265625 370.804688 196.902344 370.917969 194.863281 C 370.460938 194.632812 369.78125 194.066406 368.988281 193.613281 C 368.308594 193.273438 367.628906 193.160156 366.945312 192.933594 C 366.605469 192.820312 366.152344 192.933594 365.8125 192.820312 C 362.976562 192.480469 360.027344 192.027344 357.191406 191.683594 C 354.808594 191.34375 352.425781 191.003906 350.160156 190.664062 C 349.589844 190.550781 349.023438 190.324219 348.34375 190.324219 C 346.871094 190.210938 345.28125 190.210938 343.808594 190.210938 C 343.011719 190.210938 342.332031 190.210938 341.539062 190.097656 C 340.175781 189.984375 338.816406 189.757812 337.453125 189.644531 L 337.453125 189.304688 C 340.859375 189.078125 344.375 188.734375 347.890625 189.417969 C 347.777344 189.078125 347.664062 188.734375 347.550781 188.507812 C 348.34375 188.394531 348.910156 187.714844 349.707031 188.507812 C 349.820312 188.621094 350.5 188.28125 350.953125 188.167969 L 350.953125 187.941406 L 349.933594 187.941406 C 351.066406 187.035156 351.859375 186.242188 352.652344 185.671875 C 353.335938 185.785156 354.015625 185.902344 354.46875 186.015625 C 354.582031 183.859375 352.769531 183.746094 351.40625 182.839844 C 351.972656 182.496094 352.3125 182.15625 352.769531 182.042969 C 354.015625 181.703125 355.601562 182.609375 356.398438 180.683594 C 356.511719 180.570312 356.851562 180.570312 357.417969 180.34375 C 357.078125 180.003906 356.738281 179.773438 356.511719 179.546875 C 356.738281 179.433594 357.078125 179.320312 357.078125 179.320312 C 357.871094 179.890625 358.4375 180.34375 359.121094 180.796875 C 359.234375 180.683594 359.347656 180.570312 359.460938 180.34375 C 359.121094 179.890625 358.894531 179.433594 358.550781 178.980469 C 360.027344 177.960938 360.140625 177.394531 359.007812 174.558594 C 359.800781 174.445312 360.59375 174.21875 361.273438 174.105469 C 361.386719 173.308594 361.84375 172.515625 361.730469 171.835938 C 361.386719 169.792969 363.429688 168.886719 363.882812 167.183594 C 363.882812 167.070312 364.335938 166.957031 364.449219 167.070312 C 365.472656 167.410156 365.8125 166.617188 366.152344 166.050781 C 366.265625 165.824219 366.378906 165.597656 366.492188 165.484375 C 367.511719 164.914062 368.535156 164.460938 369.667969 163.894531 C 368.535156 162.195312 367.058594 162.988281 365.8125 162.761719 L 365.8125 162.308594 C 366.605469 162.195312 367.398438 162.082031 368.308594 161.964844 C 367.742188 161.851562 367.285156 161.738281 366.832031 161.625 C 367.398438 161.058594 367.855469 160.492188 368.421875 160.039062 C 368.535156 159.925781 368.875 159.8125 368.988281 159.8125 C 369.328125 159.925781 369.667969 160.265625 369.894531 160.492188 C 370.007812 160.152344 370.121094 159.699219 370.347656 159.359375 C 370.804688 158.789062 371.371094 158.335938 371.824219 157.882812 C 372.390625 158.5625 372.957031 159.246094 373.523438 160.039062 C 373.640625 160.039062 373.753906 159.925781 373.753906 159.925781 C 373.640625 158.789062 373.640625 157.65625 373.523438 156.523438 C 373.980469 156.636719 374.320312 156.636719 374.660156 156.75 C 374.773438 156.636719 374.773438 156.523438 374.886719 156.523438 C 374.546875 156.410156 374.320312 156.296875 373.980469 156.183594 C 374.546875 155.5 374.886719 155.046875 375 154.933594 L 375 152.777344 C 374.773438 152.664062 374.546875 152.4375 374.207031 152.324219 C 373.980469 152.210938 373.753906 152.097656 373.523438 152.097656 C 373.753906 151.871094 374.207031 151.53125 374.320312 151.53125 C 375.113281 151.984375 374.886719 150.738281 375.339844 150.851562 C 375.339844 150.511719 375.339844 149.828125 375.226562 149.828125 C 373.753906 149.261719 373.980469 148.015625 373.640625 147.222656 Z M 19.851562 100.714844 L 23.140625 100.714844 C 22.347656 101.734375 20.417969 101.734375 19.851562 100.714844 Z M 42.535156 146.878906 L 42.535156 146.425781 C 44.011719 146.3125 45.597656 146.199219 47.074219 146.199219 C 45.484375 146.199219 44.125 147.5625 42.535156 146.878906 Z M 15.199219 201.894531 C 15.878906 201.214844 16.449219 200.761719 16.675781 200.417969 C 17.242188 200.875 17.582031 201.214844 17.921875 201.554688 C 17.128906 201.554688 16.332031 201.667969 15.199219 201.894531 Z M 23.140625 201.328125 L 20.191406 201.328125 C 20.078125 201.328125 19.964844 200.875 19.738281 200.53125 C 21.097656 200.648438 22.117188 200.761719 23.140625 200.875 Z M 23.933594 201.214844 C 23.820312 201.101562 23.820312 200.988281 23.707031 200.988281 C 24.160156 200.648438 24.726562 200.417969 25.179688 200.078125 C 25.523438 199.738281 25.636719 199.171875 25.976562 198.605469 C 26.882812 200.417969 28.8125 199.851562 30.511719 200.304688 C 28.242188 200.53125 26.089844 200.875 23.933594 201.214844 Z M 9.074219 229.117188 C 9.1875 229.117188 9.1875 229.117188 9.074219 229.117188 Z M 29.71875 245.339844 C 29.605469 244.542969 29.492188 243.976562 29.378906 243.183594 C 30.171875 243.410156 30.625 243.523438 31.078125 243.75 C 30.625 244.203125 30.285156 244.65625 29.71875 245.339844 Z M 55.695312 106.046875 C 54.898438 106.160156 54.105469 106.5 53.425781 106.5 C 52.632812 106.613281 51.835938 106.5 50.929688 106.5 C 50.816406 106.386719 50.703125 106.046875 50.589844 105.707031 C 51.382812 105.480469 52.179688 105.136719 53.085938 104.910156 C 53.085938 105.25 52.972656 105.480469 52.972656 105.820312 C 53.992188 105.136719 54.898438 105.25 55.695312 106.046875 C 56.941406 105.136719 57.167969 105.25 57.507812 107.179688 C 56.828125 106.726562 56.261719 106.386719 55.695312 106.046875 Z M 60.003906 105.820312 C 60.230469 105.59375 60.457031 105.367188 60.570312 105.136719 C 61.367188 106.160156 61.367188 106.160156 59.664062 106.953125 L 57.960938 105.59375 C 59.097656 104.683594 59.777344 104.683594 60.003906 105.820312 Z M 58.644531 258.15625 Z M 60.910156 257.363281 C 61.027344 257.25 61.140625 257.25 61.253906 257.132812 C 61.367188 257.363281 61.59375 257.589844 61.820312 257.929688 C 61.59375 257.929688 61.367188 257.929688 61.140625 258.042969 C 61.027344 257.703125 61.027344 257.476562 60.910156 257.363281 Z M 67.832031 256.566406 C 67.945312 256.90625 68.058594 257.132812 68.285156 257.363281 L 67.945312 257.363281 C 67.945312 257.132812 67.945312 256.90625 67.832031 256.566406 Z M 77.132812 281.863281 C 76.792969 281.296875 76.566406 280.839844 76.339844 280.386719 L 76.90625 279.820312 C 77.699219 280.386719 77.8125 281.296875 77.132812 281.863281 Z M 105.945312 284.132812 C 105.488281 283.902344 105.035156 283.789062 104.582031 283.5625 C 105.035156 283.109375 105.488281 282.65625 105.832031 282.429688 L 107.191406 283.449219 C 106.851562 283.675781 106.398438 283.902344 105.945312 284.132812 Z M 306.601562 264.847656 C 306.488281 264.960938 306.601562 265.1875 306.601562 265.414062 L 304.898438 265.753906 C 304.671875 264.734375 305.128906 264.167969 306.148438 264.054688 C 306.488281 264.054688 306.941406 263.828125 307.507812 263.828125 C 307.167969 264.167969 306.828125 264.394531 306.601562 264.847656 Z M 308.871094 264.621094 C 308.417969 264.507812 308.078125 264.167969 307.734375 263.941406 C 308.191406 263.375 308.53125 263.03125 308.757812 262.691406 C 309.210938 263.261719 309.664062 263.714844 310.117188 264.394531 C 309.777344 264.507812 309.324219 264.621094 308.871094 264.621094 Z M 320.78125 187.941406 C 320.78125 187.714844 320.78125 187.601562 320.667969 187.375 L 323.050781 187.035156 C 323.050781 187.261719 323.164062 187.488281 323.164062 187.714844 C 322.253906 187.714844 321.460938 187.828125 320.78125 187.941406 Z M 326.679688 188.167969 C 326 188.167969 325.203125 188.167969 324.523438 187.941406 C 324.183594 187.828125 324.070312 187.375 323.730469 187.148438 C 323.84375 187.035156 323.84375 186.921875 323.957031 186.808594 C 324.976562 187.035156 325.886719 187.148438 326.792969 187.375 C 326.679688 187.714844 326.679688 188.054688 326.679688 188.167969 Z M 331.78125 188.054688 C 330.988281 187.941406 330.195312 187.375 329.402344 188.167969 C 329.289062 188.28125 328.605469 187.941406 328.265625 187.828125 C 328.265625 187.714844 328.378906 187.488281 328.378906 187.375 L 332.125 187.375 C 332.238281 187.375 332.351562 187.714844 332.464844 187.941406 C 332.125 187.941406 331.898438 188.054688 331.78125 188.054688 Z M 342.558594 244.316406 C 342.445312 244.429688 342.445312 244.542969 342.445312 244.429688 C 342.332031 244.429688 342.332031 244.316406 342.558594 244.316406 Z M 10.664062 238.191406 C 10.550781 238.191406 10.550781 238.304688 10.4375 238.304688 C 10.4375 238.304688 10.550781 238.191406 10.664062 238.191406 Z M 53.878906 259.628906 C 54.332031 259.855469 54.785156 260.082031 55.128906 260.199219 C 53.539062 261.105469 52.519531 260.878906 51.496094 259.289062 C 51.835938 259.289062 52.0625 259.175781 52.40625 259.175781 C 52.859375 259.289062 53.425781 259.402344 53.878906 259.628906 Z M 252.15625 268.929688 C 251.816406 268.816406 251.589844 268.816406 251.132812 268.703125 C 250.679688 268.589844 250.113281 268.25 249.433594 268.023438 C 249.886719 267.910156 250.226562 267.683594 250.679688 267.570312 C 251.929688 267.230469 252.496094 267.796875 252.15625 268.929688 Z M 230.261719 271.539062 C 230.945312 271.652344 231.738281 271.652344 232.53125 271.765625 C 232.191406 272.902344 231.285156 272.5625 230.601562 272.449219 C 230.375 272.449219 230.148438 271.992188 229.921875 271.765625 C 230.035156 271.652344 230.148438 271.539062 230.261719 271.539062 Z M 18.488281 244.882812 C 18.601562 245.222656 18.714844 245.453125 18.828125 245.90625 C 18.148438 245.90625 17.582031 245.90625 17.015625 245.792969 L 17.015625 244.996094 C 17.46875 244.996094 17.921875 244.996094 18.488281 244.882812 Z M 62.726562 258.949219 C 63.40625 259.0625 64.089844 259.0625 64.882812 259.175781 C 64.429688 259.628906 62.613281 259.96875 62.273438 259.628906 C 62.273438 259.515625 62.160156 259.289062 62.273438 259.175781 C 62.386719 259.0625 62.613281 258.949219 62.726562 258.949219 Z M 62.726562 258.949219"/></clipPath></defs><g clip-path="url(#a)"><g clip-path="url(#b)"><path fill="#FFD42F" d="M 0 12.464844 L 375.453125 12.464844 L 375.453125 288.101562 L 0 288.101562 Z M 0 12.464844"/></g></g><g fill="#0A1930"><g><g><path d="M 12 -165 L 71 -165 C 86.863281 -165 99.796875 -160.765625 109.796875 -152.296875 C 119.796875 -143.828125 124.796875 -131.726562 124.796875 -116 C 124.796875 -103.863281 121.757812 -93.695312 115.6875 -85.5 C 109.625 -77.300781 101.394531 -71.535156 91 -68.203125 L 147.796875 0 L 100 0 L 49.59375 -65.203125 L 49.59375 0 L 12 0 Z M 49.59375 -91.796875 L 54 -91.796875 C 57.46875 -91.796875 60.398438 -91.863281 62.796875 -92 C 65.203125 -92.132812 67.9375 -92.597656 71 -93.390625 C 74.0625 -94.191406 76.523438 -95.328125 78.390625 -96.796875 C 80.265625 -98.265625 81.867188 -100.398438 83.203125 -103.203125 C 84.535156 -106.003906 85.203125 -109.40625 85.203125 -113.40625 C 85.203125 -117.40625 84.535156 -120.800781 83.203125 -123.59375 C 81.867188 -126.394531 80.265625 -128.53125 78.390625 -130 C 76.523438 -131.46875 74.0625 -132.597656 71 -133.390625 C 67.9375 -134.191406 65.203125 -134.660156 62.796875 -134.796875 C 60.398438 -134.929688 57.46875 -135 54 -135 L 49.59375 -135 Z M 49.59375 -91.796875" transform="translate(115.898 223.107)"/></g></g></g></svg>